<svg xmlns="http://www.w3.org/2000/svg" viewBox="0 0 56 64"><defs><style>.cls-1{fill:#fff;}.cls-2{fill:#fff;}</style></defs><title>Bell</title><g id="Layer_2" data-name="Layer 2"><g id="Layer_1-2" data-name="Layer 1"><circle class="cls-1" cx="28" cy="56" r="8"/><path class="cls-2" d="M56,55v3H0V55a15,15,0,0,1,.3-3A15.18,15.18,0,0,1,3,46a15.29,15.29,0,0,0,2.14-4A14.81,14.81,0,0,0,6,37V22A22,22,0,0,1,28.8,0C40.54.43,49.72,10.3,50,22c0,.17,0,.35,0,.53V37a14.9,14.9,0,0,0,.77,4.74l.09.26A15.29,15.29,0,0,0,53,46a14.94,14.94,0,0,1,3,9Z"/><path class="cls-1" d="M55.7,52H.3A15.18,15.18,0,0,1,3,46a15.29,15.29,0,0,0,2.14-4H50.86A15.29,15.29,0,0,0,53,46,15,15,0,0,1,55.7,52Z"/><path class="cls-1" d="M50,22.53V26H6V22H50C50,22.17,50,22.35,50,22.53Z"/></g></g></svg>