<svg width="90" height="89" viewBox="0 0 90 89" fill="none" xmlns="http://www.w3.org/2000/svg">
<g clip-path="url(#clip0)">
<path fill-rule="evenodd" clip-rule="evenodd" d="M44.9983 1.10877C20.1506 1.10877 0 21.0321 0 45.607C0 65.2693 12.8922 81.9437 30.7724 87.8305C33.023 88.2427 33.8501 86.8631 33.8501 85.687C33.8501 84.626 33.8053 81.1209 33.787 77.4055C21.2669 80.0977 18.6276 72.1529 18.6276 72.1529C16.5812 67.0085 13.6313 65.6404 13.6313 65.6404C9.54872 62.876 13.942 62.9368 13.942 62.9368C18.4597 63.249 20.8382 67.5195 20.8382 67.5195C24.8545 74.3227 31.3687 72.3533 33.9348 71.2182C34.3401 68.3423 35.5028 66.3779 36.7916 65.2659C26.796 64.1441 16.2889 60.327 16.2889 43.2746C16.2889 38.4177 18.0495 34.4462 20.9246 31.3319C20.4563 30.2086 18.9149 25.6851 21.3581 19.5569C21.3581 19.5569 25.1367 18.3596 33.7372 24.1182C37.3248 23.1343 41.1732 22.6383 44.9951 22.6219C48.8201 22.6383 52.6752 23.1327 56.2679 24.1182C64.8567 18.3629 68.6319 19.5569 68.6319 19.5569C71.0785 25.6868 69.5438 30.2134 69.0754 31.3321C71.9605 34.4462 73.7062 38.4177 73.7062 43.2746C73.7062 60.3664 63.1758 64.1242 53.1585 65.2265C54.773 66.6061 56.2147 69.3146 56.2147 73.4635C56.2147 79.4143 56.1632 84.2103 56.1632 85.6738C56.1632 86.858 56.9738 88.2427 59.2559 87.809C77.1259 81.9191 90.0017 65.2427 90.0017 45.5921C90.0017 21.0204 69.8545 1.09375 45.0017 1.09375L44.9985 1.10863L44.9983 1.10877Z" fill="#653C3D"/>
</g>
<defs>
<clipPath id="clip0">
<rect width="90" height="89" fill="white"/>
</clipPath>
</defs>
</svg>
