<?xml version="1.0" standalone="no"?>
<!DOCTYPE svg PUBLIC "-//W3C//DTD SVG 20010904//EN"
 "http://www.w3.org/TR/2001/REC-SVG-20010904/DTD/svg10.dtd">
<svg version="1.0" xmlns="http://www.w3.org/2000/svg"
 width="305.000000pt" height="361.000000pt" viewBox="0 0 305.000000 361.000000"
 preserveAspectRatio="xMidYMid meet">

<g transform="translate(0.000000,361.000000) scale(0.100000,-0.100000)"
fill="#000000" stroke="none">
<path d="M1350 3600 c-331 -46 -604 -178 -841 -407 -224 -217 -369 -489 -426
-798 -22 -122 -22 -370 0 -490 26 -142 64 -261 122 -382 168 -352 470 -626
829 -752 187 -66 249 -76 491 -75 191 0 232 3 311 22 391 93 708 314 916 637
291 451 309 1040 45 1509 -97 174 -278 373 -439 484 -165 113 -381 203 -575
237 -105 19 -342 27 -433 15z m411 -26 c142 -24 252 -59 378 -120 168 -80 270
-152 402 -284 270 -269 411 -590 426 -970 29 -715 -474 -1339 -1187 -1476
-130 -25 -379 -25 -510 0 -560 107 -1004 518 -1144 1059 -214 822 325 1651
1164 1792 110 19 358 18 471 -1z"/>
<path d="M2351 3070 c-100 -65 -334 -302 -422 -427 -14 -20 -17 -21 -69 -6
-113 30 -257 -12 -335 -98 l-37 -41 -31 29 c-136 127 -324 136 -467 23 -80
-64 -139 -203 -126 -299 20 -151 68 -208 344 -413 119 -89 229 -166 243 -171
14 -6 41 -7 60 -3 42 8 434 295 497 364 132 145 152 332 51 473 l-21 30 94 97
c128 132 246 283 293 373 60 117 35 139 -74 69z m-1026 -532 c20 -23 25 -38
20 -57 -20 -79 -115 -98 -150 -30 -21 40 -19 66 10 94 36 37 86 34 120 -7z
m-197 -74 c30 -34 28 -70 -7 -105 -33 -32 -65 -37 -99 -13 -32 22 -43 57 -31
94 22 61 92 73 137 24z m-53 -199 c53 -52 18 -135 -56 -135 -71 0 -105 85 -54
135 15 16 36 25 55 25 19 0 40 -9 55 -25z"/>
<path d="M733 1970 l-20 -52 -17 26 c-21 32 -46 34 -46 4 0 -47 39 -181 59
-207 12 -14 36 -58 55 -97 26 -54 44 -79 77 -102 66 -46 166 -152 184 -195 9
-21 18 -69 21 -105 10 -131 10 -132 52 -132 38 0 114 30 126 48 4 6 -8 66 -25
134 -17 68 -35 156 -40 196 -10 90 -26 116 -110 186 -88 72 -146 143 -131 158
18 18 14 48 -6 48 -10 0 -23 -5 -28 -10 -6 -6 -18 -8 -27 -4 -15 6 -15 9 3 34
23 32 26 60 8 60 -17 -1 -37 -17 -72 -60 l-29 -35 7 45 c14 80 12 104 -6 108
-12 2 -21 -11 -35 -48z m31 -31 c-11 -37 -13 -61 -6 -88 l9 -36 12 30 c18 43
59 95 77 95 20 0 18 -6 -15 -48 -30 -38 -46 -97 -35 -126 6 -15 7 -15 19 1 13
17 14 16 24 -7 6 -14 18 -36 28 -48 34 -48 -76 33 -115 84 -42 56 -48 102 -19
167 24 55 39 38 21 -24z m-59 -59 c20 -65 33 -81 173 -210 27 -25 51 -52 54
-60 3 -8 9 -12 13 -8 7 7 -38 96 -95 186 -28 44 -31 55 -19 63 11 7 36 -14
104 -85 50 -51 107 -105 127 -121 51 -37 75 -79 82 -145 4 -30 21 -115 39
-188 24 -100 29 -137 21 -150 -12 -18 -98 -47 -118 -39 -8 3 -16 34 -20 81
-11 121 -29 168 -93 237 -31 33 -82 80 -113 104 -43 33 -63 57 -80 97 -12 29
-36 71 -52 94 -17 24 -36 72 -48 123 -24 97 -23 94 -7 89 6 -3 21 -33 32 -68z
m210 -31 c-4 -5 -13 -9 -22 -9 -13 0 -13 3 -3 15 13 15 35 11 25 -6z"/>
<path d="M2173 2003 c-3 -9 -1 -36 5 -60 19 -70 14 -74 -32 -26 -30 32 -48 44
-60 40 -22 -9 -20 -20 9 -55 21 -25 23 -31 9 -36 -8 -3 -24 -1 -36 5 -11 6
-26 8 -35 5 -13 -6 -13 -9 1 -31 16 -25 16 -27 -26 -76 -24 -28 -72 -74 -107
-102 -69 -55 -100 -107 -101 -168 0 -19 -16 -99 -35 -178 -19 -78 -35 -148
-35 -154 0 -21 58 -48 114 -54 l52 -5 11 100 c7 57 20 120 32 147 21 47 102
133 178 187 29 22 51 50 73 96 17 36 44 84 59 106 36 52 71 200 52 219 -10 9
-17 6 -35 -16 l-22 -27 -13 37 c-22 62 -45 80 -58 46z m51 -66 c22 -66 16 -88
-39 -152 l-34 -40 -1 48 c0 51 -10 79 -42 114 -11 12 -18 27 -16 33 6 18 79
-62 85 -92 3 -16 10 -28 15 -28 11 0 5 119 -7 159 -6 18 -5 23 6 19 7 -2 22
-30 33 -61z m72 -4 c-3 -10 -13 -49 -21 -88 -9 -38 -27 -84 -40 -101 -14 -18
-39 -61 -56 -97 -17 -37 -43 -74 -58 -83 -47 -31 -173 -158 -191 -194 -21 -41
-40 -134 -40 -196 0 -24 -5 -46 -10 -49 -17 -10 -106 14 -123 33 -13 15 -11
32 18 147 17 72 35 156 39 188 9 78 24 105 92 161 53 44 174 168 174 179 0 3
-9 7 -20 10 -11 3 -20 11 -20 17 0 9 7 8 23 -3 15 -9 29 -12 37 -7 17 11 30 4
30 -15 0 -8 -20 -46 -44 -83 -56 -88 -78 -131 -74 -144 2 -6 17 9 33 32 16 22
48 53 73 67 55 33 118 111 133 166 14 52 27 77 40 77 6 0 8 -8 5 -17z m-158
-174 c11 -14 7 -20 -23 -38 -46 -27 -54 -27 -28 2 11 12 23 31 27 41 3 10 8
17 9 15 1 -2 8 -11 15 -20z"/>
<path d="M470 857 c-73 -21 -122 -49 -166 -93 -50 -49 -63 -94 -40 -129 25
-39 46 -32 46 14 0 78 33 127 112 167 52 26 144 33 195 13 176 -66 155 -407
-37 -613 -76 -80 -142 -117 -227 -124 l-64 -5 6 29 c32 140 125 441 176 572
34 85 35 92 11 92 -19 0 -52 -31 -70 -65 -28 -56 -162 -490 -177 -577 -10 -55
20 -71 123 -67 105 5 201 52 289 140 199 200 221 538 42 630 -51 26 -158 34
-219 16z"/>
<path d="M2579 698 c-18 -24 -52 -85 -76 -135 -33 -70 -49 -93 -64 -93 -10 0
-19 -4 -19 -10 0 -5 7 -10 16 -10 11 0 14 -5 9 -17 -3 -10 -15 -49 -26 -88
-10 -38 -31 -88 -47 -110 -60 -85 -162 -127 -212 -87 -36 29 -34 108 3 184 61
125 192 182 142 62 -18 -43 -8 -62 23 -45 44 23 35 111 -13 133 -19 8 -34 8
-63 0 -64 -19 -117 -74 -163 -168 -58 -117 -137 -184 -174 -147 -22 21 -19 43
17 112 27 52 30 64 18 72 -24 14 -27 12 -71 -48 -56 -77 -119 -143 -148 -154
-27 -11 -51 3 -51 30 0 40 33 123 71 180 43 64 79 95 121 106 35 9 72 -26 65
-62 -4 -20 -1 -24 17 -21 32 5 34 51 2 83 -73 73 -229 -14 -311 -174 -45 -87
-89 -133 -124 -129 -35 4 -39 38 -12 107 27 66 27 111 0 145 -41 52 -104 31
-194 -66 -44 -47 -57 -57 -52 -38 25 91 19 118 -26 106 -19 -4 -25 -17 -35
-65 -15 -71 -53 -111 -106 -111 -18 0 -35 2 -38 5 -3 3 8 31 24 61 33 66 39
152 12 178 -20 20 -63 20 -92 0 -57 -39 -67 -120 -25 -204 l26 -53 -37 -34
c-27 -25 -45 -33 -64 -31 -26 3 -27 5 -26 63 1 54 10 84 52 168 11 21 -34 3
-63 -26 -39 -39 -70 -132 -61 -180 18 -88 94 -91 188 -8 37 33 52 40 71 36 13
-4 41 1 62 9 21 9 39 16 41 16 2 0 -4 -16 -12 -36 -18 -44 -12 -64 18 -64 18
0 34 18 73 81 63 101 123 159 165 159 45 0 57 -32 36 -103 -9 -30 -16 -69 -16
-86 0 -64 85 -79 149 -25 l29 24 12 -34 c24 -73 98 -67 175 13 l40 42 5 -33
c12 -75 102 -73 186 4 40 37 44 38 44 19 0 -59 47 -100 113 -101 59 0 98 19
158 77 l47 45 7 -40 c9 -55 34 -75 90 -74 78 1 160 64 209 160 27 53 13 47
-25 -10 -62 -94 -147 -140 -194 -105 -16 13 -19 26 -18 75 1 62 40 202 58 208
5 1 49 6 98 9 48 4 87 10 87 14 0 4 -38 5 -85 3 -65 -3 -85 -1 -85 8 0 7 21
52 47 99 79 143 88 171 53 171 -12 0 -33 -17 -51 -42z m-1499 -287 c0 -48 -36
-136 -55 -136 -17 0 -38 83 -30 121 3 20 17 47 31 61 34 34 54 17 54 -46z"/>
</g>
</svg>
